<svg width="630" height="630" viewBox="0 0 630 630" fill="none" xmlns="http://www.w3.org/2000/svg"><g clip-path="url(#a)"><rect width="630" height="630" rx="315" fill="#fff"/><path d="M307.617 64.969c-13.289 1.169-25.594 3.322-33.53 5.721-7.26 2.277-20.426 7.69-28.301 11.751-16.057 8.183-27.808 16.98-42.759 31.931-5.291 5.291-11.997 12.612-15.011 16.365-19.995 24.979-34.761 57.709-40.606 90.132-1.23 6.583-3.199 26.086-4.06 39.314-.369 5.598-.739 10.212-.862 10.336-.061.123-1.784-.124-3.814-.493-6.645-1.23-14.089.8-15.935 4.43-3.076 5.906.862 10.274 10.459 11.505q3.692.462 3.507 1.292c-.061.431-.308 2.461-.492 4.553-.185 2.091-1.292 6.706-2.399 10.274-3.753 11.936-4.738 21.595-3.384 33.53 1.538 13.289 5.66 25.471 11.997 35.069 4.245 6.521 4.306 6.706 4.922 16.919.861 13.166 3.753 33.653 6.521 45.465 6.153 26.579 18.273 52.049 33.284 69.891 18.334 21.964 39.806 35.991 65.769 43.005 12.858 3.507 19.872 4.307 36.545 4.307 17.226 0 23.809-.739 37.529-4.246 20.918-5.352 42.205-16.18 59.678-30.269 7.383-5.968 19.872-18.642 26.27-26.64 18.211-22.825 31.254-51.433 37.099-81.395.861-4.307 1.538-7.875 1.538-7.998 0-.062 3.938-.123 8.798-.123 9.782 0 15.012-1.108 22.148-4.676 8.368-4.245 17.904-12.858 25.471-23.071 8.982-12.182 15.75-30.208 16.796-44.543 1.846-25.779-9.721-47.189-27.563-51.003-1.784-.369-4.491-.677-6.029-.677h-2.768l.492-6.337c.246-3.445.492-13.597.492-22.579-.062-17.78-.369-20.303-4.307-36.606-2.953-12.367-7.382-26.456-10.52-33.715-10.275-23.379-24.179-42.944-44.912-63.185-18.027-17.534-35.684-29.47-55.064-37.16-9.167-3.63-27.808-8.675-36.483-9.905-6.768-.923-25.163-1.662-30.516-1.17M264.428 93.33c-.615 3.26-.554 3.999.307 5.353.616.86 1.785 1.784 2.646 1.968 2.03.493 8.675-1.292 13.104-3.507 1.908-.984 3.507-1.784 3.569-1.784s-.062 1.354-.246 3.015c-.493 4.307.123 6.152 2.399 7.075 3.568 1.538 9.844-.8 18.334-6.644l3.999-2.769.185 3.507c.246 4.799 1.661 6.275 5.967 6.275 2.584 0 3.876-.43 7.383-2.522 6.153-3.753 8.675-4.737 15.75-6.153 4.122-.8 7.322-1.845 9.044-2.891 1.477-.923 3.692-2.276 4.922-3.076 1.907-1.17 2.83-1.354 5.722-1.108 9.905.923 32.3 11.136 46.327 21.164 8.306 5.907 21.102 18.888 26.947 27.255 7.014 10.029 9.229 14.274 12.428 23.933 3.384 10.213 4.307 16.55 3.876 27.931-.308 10.029-1.477 15.012-5.476 23.872-2.522 5.537-2.645 5.906-2.584 11.874 0 5.168.431 7.998 2.892 17.903 2.707 11.013 4.06 18.703 5.045 27.87l.369 3.876-5.722-.369c-6.583-.431-26.639-1.6-28.485-1.6-.923 0-1.723-.923-2.953-3.445-4.799-9.782-17.842-18.334-32.731-21.533-6.829-1.477-31.069-1.907-38.759-.677-17.965 2.892-30.516 11.505-37.345 25.717l-2.584 5.291-2.769-2.154c-6.952-5.291-16.55-8.49-24.363-7.936-6.214.369-10.767 2.092-15.073 5.66l-3.384 2.769-2.707-5.414c-2.092-4.246-3.753-6.399-7.752-10.336-4.184-4.184-6.091-5.537-11.443-8.183-10.029-4.922-19.565-6.829-34.7-6.829-15.073 0-24.67 1.907-34.576 6.768-3.445 1.661-6.398 3.076-6.583 3.076-1.599 0 3.199-37.776 6.46-50.757 3.076-12.12 11.874-33.038 18.703-44.297 14.827-24.548 26.886-38.329 47.989-54.756 9.72-7.567 25.224-15.32 33.837-16.857 1.354-.246 2.523-.431 2.584-.37.062.062-.184 1.785-.553 3.815m-52.787 164.821c10.889 2.031 20.487 6.829 25.593 12.736 2.83 3.322 5.538 8.674 6.83 13.535 1.353 5.291.799 19.011-1.046 26.27-1.662 6.706-7.014 17.719-10.89 22.456-9.29 11.382-22.148 16.919-37.714 16.12-8.613-.431-12.858-1.477-19.687-4.861-12.121-6.029-22.272-20.61-26.763-38.39-2.707-10.644-1.969-16.243 3.814-27.563 7.014-13.658 15.627-18.888 35.253-21.287 5.845-.677 18.58-.185 24.61.984m159.407 0c13.166 2.154 21.902 6.829 27.07 14.52 9.967 14.704 10.644 32.115 1.846 50.018-6.46 13.105-16.981 21.903-30.762 25.656-6.275 1.722-20.426 1.907-26.824.307-13.289-3.322-24.302-12.551-30.208-25.286-4.86-10.582-6.952-24.732-4.922-33.776 3.691-16.673 11.69-25.225 28.239-30.27 8.921-2.707 23.256-3.199 35.561-1.169m-85.272 24.241c2.031.799 5.107 2.337 6.83 3.383l3.137 2.031.369 10.336c.493 13.842 2.154 20.979 7.322 31.315 7.444 14.95 19.872 25.286 35.253 29.224 6.398 1.661 19.687 2.276 26.762 1.292 20.118-2.954 37.53-15.935 44.851-33.531 4.06-9.72 6.644-25.409 5.845-35.437-.247-2.892-.493-5.353-.493-5.476-.061-.369 31.193-.061 31.746.308 1.169.738-.184 32.115-2.03 44.85-1.046 7.322-5.414 30.578-6.706 35.746-3.138 12.12-6.644 20.241-12.551 29.1-4.06 6.091-12.366 14.704-17.657 18.396-3.691 2.461-15.996 9.351-16.857 9.351-.308 0-1.231-2.03-2.031-4.491-1.722-5.476-6.09-14.704-8.797-18.703-3.323-4.86-9.167-10.644-13.966-13.781-10.459-6.891-25.04-10.09-52.111-11.505l-7.998-.431v-5.229c0-2.892-.369-6.276-.799-7.506-1.415-4.061-5.968-6.706-7.998-4.676-.431.431-.739 2.399-.739 4.491 0 5.107-1.415 7.568-5.598 9.721-4.553 2.338-10.705 3.507-18.396 3.507-13.104 0-21.964-3.507-27.132-10.644-3.814-5.291-4.06-11.689-.923-23.194 1.169-4.245 2.338-8.86 2.584-10.152.185-1.353 1.415-5.106 2.707-8.305 1.231-3.199 2.769-7.814 3.323-10.152 1.476-6.398 3.999-19.933 4.183-22.763.185-2.154.554-2.707 3.199-4.43 6.891-4.676 16.612-5.66 24.671-2.645m212.01 6.213c3.322 1.662 8.613 7.014 11.751 11.874 8.06 12.49 7.014 32.239-2.891 53.157-6.46 13.596-17.104 25.347-28.67 31.746-7.137 3.937-17.535 5.721-22.764 3.999-1.169-.431-2.276-.923-2.584-1.169-.246-.185.369-7.137 1.353-15.443 2.277-18.703 4.061-36.175 5.291-51.249.862-10.828 1.046-11.812 2.892-15.688 2.707-5.537 10.89-13.781 16.488-16.55 6.706-3.322 13.536-3.568 19.134-.677M142.119 321.46c0 .431 1.292 3.445 2.83 6.644l2.83 5.845-.43 12.12c-.246 6.645-.677 11.874-.923 11.567-.985-.985-3.63-9.413-4.553-14.151-1.784-9.597-2.03-24.301-.308-23.256.308.247.554.739.554 1.231m26.394 31.069c9.228 5.476 19.072 7.752 31.438 7.199 11.074-.493 18.642-3.138 28.301-9.906l3.999-2.83.431 6.645c.43 7.075 1.292 10.397 4.552 16.857l2.092 4.184-1.353.307c-.8.123-4.245.862-7.752 1.538-26.271 5.23-40.79 16.55-47.496 37.038-.739 2.337-1.538 4.183-1.723 4.183-.861 0-6.583-4.183-8.613-6.214-4.738-4.799-8.552-12.243-12.366-24.24-3.077-9.598-3.938-16.673-3.507-29.224.184-5.906.553-11.381.738-12.12.369-1.292.492-1.23 3.753 1.415 1.907 1.477 5.229 3.815 7.506 5.168M352.16 407.47c1.292.369 3.63 1.845 5.23 3.26 5.906 5.291 8.367 15.012 6.521 25.84-2.461 14.274-8.367 25.163-19.011 35.13-5.537 5.168-9.659 7.998-16.18 11.136-4.368 2.092-5.291 2.276-9.906 2.276h-5.106l-2.399-2.522c-1.785-1.907-2.707-3.815-3.938-7.814-2.153-7.136-4.491-9.659-8.736-9.659-1.661 0-4.676.431-6.706.861-10.521 2.461-21.533 2.4-31.931-.246-3.384-.861-6.029-1.23-7.383-.984-2.276.431-5.106 3.199-5.537 5.476-1.415 6.767-1.907 8.182-3.814 10.213-1.908 2.153-2.154 2.214-6.214 2.214-5.414-.061-10.213-2.461-16.181-8.059-9.659-9.106-14.581-20.118-16.057-35.991-1.6-16.673 2.953-27.871 11.689-28.732 1.784-.123 6.214.369 11.197 1.354 13.782 2.645 27.378 3.506 34.761 2.153 1.969-.369 5.23-1.354 7.198-2.153l3.63-1.538 4.245 1.599c8.552 3.261 16.365 3.445 35.991.615 5.722-.799 13.597-2.214 17.473-3.076 12.243-2.83 15.381-3.014 21.164-1.353" fill="#000"/><path d="M205.488 218.47c-19.749 1.907-32.853 9.536-27.685 16.119q2.583 3.322 9.044 1.107c8.49-2.83 23.748-3.26 40.79-1.046 11.935 1.539 13.535 1.354 16.119-1.476 8.798-9.659-11.074-17.35-38.268-14.704m136.767.553c-8.06 1.169-16.119 4.861-18.396 8.368-1.538 2.276-1.415 5.475.185 7.075 1.969 2.03 5.968 2.153 12.612.492 5.168-1.353 7.014-1.477 19.565-1.477 15.257 0 19.318.493 27.993 3.446 6.952 2.399 10.213 2.215 12.735-.615 2.153-2.4 2.215-4.922.185-7.322-3.815-4.552-12.366-8.182-22.764-9.659-6.521-.984-26.455-1.107-32.115-.308m-138.305 66.2c-2.891 1.476-5.045 3.814-6.583 7.259-1.169 2.646-1.415 4.184-1.415 9.598 0 13.105 4.553 19.626 13.72 19.688 8.982 0 13.35-6.46 13.35-19.749 0-6.276-.123-6.768-2.153-10.767-1.784-3.568-2.584-4.491-4.922-5.66-3.322-1.661-9.167-1.846-11.997-.369m148.026-.246c-3.507.799-7.506 4.737-8.921 8.859-2.277 6.645-1.846 16.427.922 21.841 4.123 8.182 15.566 8.798 20.734 1.169 2.461-3.63 4.06-10.152 4.122-16.304 0-9.044-3.138-14.15-9.598-15.627-3.137-.738-3.63-.738-7.259.062m137.566 21.041c-5.783 2.091-14.212 9.659-17.042 15.257-.984 2.092-1.846 4.369-1.846 5.045 0 2.031 1.723 4.061 3.507 4.061 2.03 0 4.922 3.138 5.783 6.337 1.046 3.999.369 9.413-2.092 15.504-3.322 8.551-3.322 8.121-.676 9.351l2.215 1.108 3.445-3.692c4.307-4.614 6.644-9.597 7.506-16.057.984-7.629-.431-12.736-4.553-16.058l-2.153-1.661 1.292-1.723c.676-.984 3.507-3.691 6.337-6.029 2.768-2.399 5.537-5.291 6.09-6.46.985-1.969.985-2.215 0-3.691-.553-.862-1.476-1.538-2.03-1.538s-1.538-.124-2.215-.308c-.676-.185-2.276.123-3.568.554M333.149 424.266c-8.613 6.029-15.75 9.105-27.008 11.935-9.537 2.338-15.812 3.076-26.271 3.076-18.518 0-37.714-5.475-49.342-14.089-2.461-1.784-3.507-2.214-4.552-1.845-1.539.554-3.261 2.891-3.261 4.429 0 1.662 2.153 5.476 4.122 7.26 5.722 5.353 19.257 10.398 34.945 13.166 21.472 3.692 49.342-.061 68.291-9.29 11.874-5.721 16.735-11.443 13.843-16.119-1.969-3.138-4.614-2.768-10.767 1.477" fill="#000"/></g><defs><clipPath id="a"><path fill="#fff" d="M0 0h630v630H0z"/></clipPath></defs></svg>